<?xml version="1.0" encoding="UTF-8"?>
<svg fill="white" id="Layer_1" data-name="Layer 1" xmlns="http://www.w3.org/2000/svg" viewBox="0 0 373.41 441.13">
  <path d="m152.04,272.58c-13.61-4.05-24.45-10.48-34.45-19.26-.69,4.25-3.38,6.56-6.82,7.73-1.71.58-4.19.68-5.67-.15-7.48-4.25-14.96-8.56-22.01-13.47-5.07-3.54-9.67-7.85-14.06-12.23-1.59-1.59-2.68-4.35-2.77-6.63-.22-5.45.09-10.96.6-16.4.17-1.81,1.19-3.98,2.54-5.15,4.7-4.06,9.61-7.9,14.65-11.53,3.23-2.32,6.94-3.47,11.01-1.66.32-.55.68-.94.78-1.39,1.06-4.69,3.93-6.62,8.71-6.02,2.37.3,4.38-.24,3.7-3.39-.14-.65-.65-1.22-1.04-1.8-.13-.19-.44-.23-.63-.39-4.47-3.8-9.09-6.36-15.48-6.49-6.72-.13-11.62-5.22-16.59-9.44-1.03-.88-2.56-1.8-3.79-1.72-15.06.95-20.74-5.82-24.6-19.24-.09-.32-.22-.64-.45-1.3-1.14,10.33,6.09,15.53,12.08,21.71-4.93.69-9.49.39-13.42-3.02-6.19-5.37-8.28-12.4-7.51-20.21.57-5.76,1.94-11.44,2.55-17.13-9.73,16.19-11.32,31.96,3.99,47.08-10.8-1.45-23.96-17.84-24.81-30.04-.95-13.66,1.31-26.59,9.65-38.01-11.12,8.25-14.42,21.35-20.59,32.75,1.01-10.02,2.66-19.81,8.4-28.36,5.71-8.51,14.21-13.82,23.52-19.59-9.97,1.44-17.22,5.93-24.19,11.58-7.24,5.86-10.52,13.69-12.47,23.17-5.9-8.48-2.14-27.81,6.99-37.77,9.2-10.04,20.05-17.22,34.64-16.25-13.61-6.76-25.69-.79-37.95,4.67,6.04-8.97,13.34-15.42,24.43-17.23,11.14-1.82,20.28,2.17,29.34,8.18,3.34-4.23,6.59-8.29,9.77-12.4,15.95-20.57,37.48-28.87,62.88-28.35,4.41.09,8.79,1.24,13.84,2-2.08-8.29-4.1-16.3-6.4-25.44,5.92,1.08,11.26,1.79,16.41,3.21,1.04.29,1.95,3.32,1.85,5.02-.35,6.09-1.15,12.15-1.82,18.6,3.83-2.99,7.38-5.77,10.93-8.54.38.33.76.65,1.14.98-2.03,4.42-4.06,8.84-6.16,13.42,21.32,12.43,29.64,32.4,33.1,55.41,9.69-.17,12.41,6.07,12.64,14.41,2.23-.88,4.01-1.59,5.78-2.29.37.29.74.59,1.11.88-1.57,3.1-3.13,6.2-4.72,9.29-1.61,3.13-3.25,6.25-4.88,9.37.42.29.83.58,1.25.87,3.5-3.91,7.19-7.67,10.45-11.77,3.64-4.58,6.96-9.44,10.3-14.25,2.92-4.21,6.81-6.23,11.87-5.27,5.48,1.04,10.88,2.49,16.35,3.58,1.71.34,3.71.62,5.29.08,9.5-3.25,19.18-5.45,29.21-6.06,7.02-.43,7.52-.02,9.57,6.91.37,1.25,1.29,2.34,1.96,3.51,1.11-.88,2.7-1.54,3.24-2.69,3.89-8.33,7.58-16.75,11.31-25.15.25-.56.36-1.19.54-1.79,1.48-4.98,4.16-7.57,7.69-7.44,3.26.12,6.05,2.91,7.11,7.66,1.32,5.91.01,11.52-3.4,16.39-2.41,3.44-5.53,6.38-8.32,9.55-1.25,1.42-2.45,2.88-3.68,4.33.3.33.6.65.9.98,2.64-1.9,5.39-3.67,7.89-5.73,6.33-5.22,9.2-5.16,14.97.64,5.49,5.52,12.8,6.24,19.86,7.76,1.89.41,4.98,1.57,5.08,2.62.2,2.17-.62,5.09-2.13,6.6-2.19,2.19-5.36,3.4-8.46,5.24,1.83,1.53,3.87,3.29,5.96,4.98,3.1,2.51,6.33,4.87,9.34,7.49,2.07,1.79,4.45,3.99,3.04,6.98-1.44,3.03-4.73,2.6-7.35,1.99-4.24-.99-8.35-2.48-12.52-3.76-.66-.2-1.3-.45-2.67,0,3.24,4.78,6.37,9.64,9.76,14.3,3.22,4.43,5.77,9.03,5.82,14.68.03,3.77-1.1,4.94-4.73,3.87-9.55-2.81-15.65-9.34-18.77-18.66-.68-2.03-.93-3.76-3.58-4.53-1.52-.44-2.49-2.79-3.83-4.44-5.7,4.47-12.9,5.97-19.67,3.3-5.35-2.1-9.61-2.7-14.56.18-1.48.86-3.84,1.17-5.45.66-4.16-1.32-6.45.64-9.3,3.28-3.32,3.08-7.41,5.42-11.4,7.66-4.44,2.5-9.09,1.61-13.17-.93-1.78-1.11-3.74-3.38-3.9-5.27-.23-2.79,1.9-4.93,4.84-5.92,1.9-.64,3.68-1.63,5.52-2.47-.08-.33-.17-.65-.25-.98-4.54,0-9.09,0-13.63,0-.37,0-.96-.02-1.07.18-2.95,5.28-10.27,4.72-13.26,10.47-2.59,4.99-6.74,9.17-9.96,13.4,5.81,5.1,11.15,9.9,16.63,14.55,5.66,4.81,8.46,10.65,7.09,18.14-.77,4.2.65,6.14,5.16,6.76,7.98,1.11,13.47,6.05,17.25,13.01,8.28,15.23,9.04,31.56,7.34,48.97-4.38-1.12-8.4-2.14-12.18-3.11-1.28,3.84-2.53,7.6-3.66,11.01,4.42,3.59,9.79,7.11,14.12,11.63,8.77,9.14,9.58,20.98,9.74,32.85.08,6.51-3.02,11.96-5.66,17.62-.85,1.82-1.15,4.22-.82,6.21,1.43,8.44,2.26,16.86.09,25.24-1.8,6.97-5.16,9.41-12.34,9.61-5.99.16-11.98.15-17.96.42-1.47.07-3.31.54-4.3,1.52-8.52,8.42-16.86,17.01-25.29,25.52-1.87,1.89-2.37,3.48-1.39,6.42,2.86,8.6.6,17.01-2.71,25.08-.47,1.15-2.49,1.91-3.95,2.38-6.9,2.19-13.88,1.37-20.71-.19-3.52-.81-5.37,1.08-7.61,2.89-.98.79-2.22,1.79-3.34,1.78-10.97-.14-21.95-.47-32.92-.75-.37,0-.92.05-1.09-.16-2.97-3.72-7.29-2.15-11.02-2.88-2.43-.48-5.42-.11-6.1-3.75-.11-.6-1.73-.82-2.47-1.43-4.09-3.36-8.26-6.66-12.14-10.26-2.01-1.86-1.75-4.18.83-5.53,3.26-1.69,6.7-3.04,9.99-4.68.93-.46,2.06-1.3,2.33-2.2,4.66-15.11,9.23-30.25,13.69-45.42.31-1.05-.08-2.62-.71-3.58-3.86-5.96-7.91-11.8-11.84-17.71-2.39-3.6-2.66-7.66-1.26-11.51,3.02-8.3,6.31-16.51,9.78-24.64,1.24-2.9,1.4-4.87-1.24-7.09-2.35-1.98-4.15-4.63-6.16-7.02-2.1-2.5-1.74-4.84.75-6.8,2.05-1.62,4.33-2.95,6.36-4.6,3.06-2.5,5.99-5.16,9.88-8.55Zm-36.02-106.02s-.12-.12-.12-.12c-4.3,3.05-8.6,6.1-13.53,9.59,2.86,1.49,5.69,3.37,8.79,4.52,10.11,3.76,20.73,4.32,31.31,3.6,3.93-.27,7.9-2.21,11.52-4.05,6.84-3.46,11.64-9.22,16.2-15.27,5.52-7.32,11.64-14.15,14.91-22.99.76-2.05,3.53-3.4,5.45-4.96,1.99-1.62,4.49-2.78,6.07-4.71,8.09-9.93,12.19-21.04,9.79-34.1-1.07-5.8-7.04-9.95-11.03-7.04-2.03,1.48-3.95,3.34-5.32,5.43-2.24,3.42-4,7.16-5.97,10.78-.85-.46-1.52-.83-2.26-1.23-1.41,6.06-3.57,11.54-1.92,17.96,1.25,4.86.99,10.51-2.63,14.84-7.11,8.49-16.38,13.18-27.37,14-10.7.8-19.32-3.2-25.74-12.04-3.96-5.44-4.18-5.28-9.94-1.66-.2.12-.3.39-.14.17,1.21,3.75,2.32,7.21,3.44,10.67-.31.1-.61.21-.92.31-1.7-2.93-3.59-5.77-5.06-8.81-1.74-3.6-4.73-4.18-8.55-4.12.91.79,1.58,1.37,2.2,1.91-3.93,1.11-1.5,3.95-2.04,5.9.36.2.72.4,1.08.59.82-1.36,1.64-2.72,2.52-4.18.46,1.12,1.21,2.4,1.51,3.78.41,1.87,1.27,5.01.53,5.51-2.19,1.47-5.1,2.64-7.69,2.57-3.49-.09-6.34-2.3-8.48-6,2.02.79,3.44,1.56,4.95,1.85,1,.19,2.93-.1,3.05-.55.52-1.94,1.12-4.21.56-5.99-.51-1.6-2.3-3.51-3.88-3.92-5.47-1.42-9.94,1.2-12.76,6.8-2.04,4.04-.64,9.6,2.9,13.08,2.86,2.81,5.61,5.79,8.01,8.99,3.95,5.26,5.22,5.72,10.98,3.03,3.15-1.47,6.38-2.78,9.57-4.16Zm248.05-1.27c.57-3.82-.16-7.4-2.02-10.46-3.74-6.15-8.07-11.93-11.85-18.05-3.82-6.18-7.44-12.43-13.64-16.66-.78-.53-1.03-1.83-2.01-3.71,1.87.9,2.64,1.26,3.22,1.54.43-1.77.81-3.3,1.18-4.82.48-.1.95-.2,1.43-.3-1.28,9.14,4.63,14.08,10.75,17.88,9,5.6,17.34,6.47,20.97,3.26-1.8-1.8-3.46-3.68-5.35-5.31-4.47-3.85-9-7.63-13.62-11.31-1.67-1.33-3.57-2.47-5.52-3.36-3.3-1.5-7.1-2.19-10.02-4.19-4.59-3.15-4.74-3.45-8.23.97.76,1.13,1.5,2.25,2.24,3.36-.33.47-.66.93-.99,1.4-6.26-6.42-13.69-9.7-22.48-9.55,5.61-1.65,11.06-1.29,16.2,1.36,1.81.93,2.91,1.53,4.68-.24,3.57-3.57,4.59-3.27,8.58-.17,5.24,4.09,11.22,6.46,17.99,6.23,4.8-.16,8.21-4.08,7.72-8.64-.91-.34-1.8-.76-2.73-1-.59-.15-1.25.02-1.86-.09-8.09-1.41-16.04-2.91-21.62-10.05-1.45-1.86-4.35-2.88-6.98-.93-1.96,1.45-3.89,2.96-5.92,4.33-2.82,1.92-5.72,3.73-8.78,5.71-1.17-4.37.14-6.97,2.7-9.42,3.07-2.94,6.12-6,8.62-9.41,3.71-5.07,5.65-13.14,1.67-19.26-1.7-2.62-4.72-3.14-6.82-.84-1.13,1.24-2.4,2.78-2.64,4.33-1.43,9.05-6.14,16.73-10.24,24.6-1.61,3.08-4.64,5.5-7.29,7.93-3.18,2.92-6.77,5.46-5.74,11.03,1.84-2.36,3.48-4.46,5.12-6.56.29.19.58.39.87.58-2.92,4.8-5.43,9.92-8.88,14.3-2.98,3.79-7.01,6.77-10.61,10.07-6.14,5.63-11.96,11.66-20.02,14.76-3,1.15-3.7,4.63-1.31,6.06,2.34,1.39,5.11,2.73,7.75,2.83,9.77.4,22.39-11.42,23.17-21.15.09-1.08.61-2.12.93-3.17.46.07.93.13,1.39.2-.33,3.73-.66,7.47-1.01,11.4,4.23,1.45,8.5.5,12.38-2.11,1.7-1.14,3.17-1.84,4.89-.43,3.89,3.2,8.52,3.89,13.22,3.3,3.68-.46,7.96-.34,9.75-5,.29-.76,2-1.68,2.62-1.43.94.37,1.67,1.62,2.17,2.64.75,1.53,1.22,3.2,2.05,5.44,1.3-2.8,2.09-4.5,2.88-6.21.37.09.75.19,1.12.28-.37,6.42-.04,12.55,4.08,17.97,3.99,5.26,8.51,9.29,15.84,10.03Zm-193.19,101.05c2.65-1.73,5.35-2.88,7.21-4.84,2.71-2.85,5.6-4.43,9.5-3.77,2.48.42,4.93,1.04,7.71,1.64-1.05-5.73-.89-12.22-3.51-17.27-3.1-5.97-8.59-10.69-12.58-15.4.84.54,2.5,1.46,3.99,2.59,5.28,4.02,10.95,7.78,12.31,14.96.79,4.2,1.43,8.45,1.82,12.71.26,2.84,1.22,4.81,4.01,5.79,1.15.4,2.19,1.11,3.28,1.68-.15.34-.31.67-.46,1.01-4.08-1.5-8.09-3.2-12.24-4.44-4.52-1.35-9.02-2.42-12.73,2.35-1.29,1.66-3.84,2.46-5.93,3.36-3.71,1.6-6.67,6.31-4.11,10.75,1.39-2.17,2.29-4.68,4.06-6.02,1.99-1.5,4.52-.55,7.48.99-7.12.52-8.56,1.46-9.03,5.41-.36,2.98-.67,5.97-.9,7.98,8.72-3.37,18.16-7.13,27.69-10.61,2.1-.77,4.75-1.27,6.8-.68,3.46.99,5.54-.6,8.3-2.6-2.24-2.02-4.22-3.81-6.2-5.59.09-.11.18-.23.26-.34,1.51.6,3.01,1.21,5.6,2.24-1.08-11.6-2.04-22.39-3.16-33.17-.1-.97-.98-2.2-1.84-2.69-6.06-3.39-12.25-6.56-18.34-9.89-5.96-3.26-12.33-4.53-19.09-4.53-3.69,0-7.4-.38-11.06-.85-3.78-.48-5.41.65-5.78,4.4-.08.85-.27,1.68-.4,2.52-1.15,7.21-1.94,14.48,2.37,20.97,4.65,7.02,9.65,13.8,14.96,21.32Zm-41.51-154.59c-1.46.87-2.4,1.46-3.36,2-5.8,3.25-8.08,9.39-5.17,15.29,1.98,4.02,4.46,7.86,7.11,11.49,5.19,7.1,12.5,11.18,21.16,10.68,9.62-.56,18.53-4.15,24.71-12.03,2.12-2.7,3.88-6.56,3.86-9.88-.04-7.7-3.51-14.61-7.24-21.25-4.01-7.15-11.32-10.33-17.9-7.58-2.76,1.15-4.33,3.43-4.43,6.3,3.91-.89,7.52-2.1,11.22-2.46,7.39-.73,7.41-.54,8.13,7.12.82,8.71-4.12,15.93-12.35,18.07-4.77,1.24-9.52-2.15-8.92-6.41.35-.04.72-.12,1.09-.13,6.95-.18,9.4-3.23,8.16-10.14-.44-2.42-3.37-4.3-5.13-2.93-3.46,2.7-7.09,5.42-9.75,8.83-3.72,4.76-6.49,10.2-4.59,16.68-4.05.85-6.95-.1-9.07-3.67,5.71-8.83,11.47-17.74,17.23-26.66-5.09.52-7.02,3.55-8.21,7.43-1.64,5.32-5.5,8.77-10.22,11.77,1.26-4.28,2.4-8.15,3.68-12.51Zm-28.82,127.41c.32-.33.64-.66.97-.99.69.6,1.39,1.19,2.06,1.81,3.6,3.31,7.06,6.8,10.85,9.89,2.62,2.14,5.18.4,7.09-1.45,2.19-2.12-.23-3.35-1.44-4.75-3.96-4.57-7.89-9.17-11.83-13.76.29-.28.59-.56.88-.85.82.8,1.66,1.59,2.47,2.4,3.57,3.56,7.06,7.2,10.72,10.67,2.42,2.29,4.74,1.84,7.6-1.16,3.04-3.18,3.04-4.5.27-7.41-3.43-3.6-6.78-7.29-10.17-10.94.23-.22.46-.45.69-.67,4.4,3.91,8.79,7.82,13.69,12.17,1.48-1.39,3.77-2.58,4.38-4.35.65-1.87.4-4.75-.66-6.4-5.42-8.38-13.37-14.24-21.21-20.81-4.6,5.18-8.87,9.99-13.13,14.8-5.84,6.6-7.83,15.1-11.19,22.91-1.73,4.02-1.13,7.7,2.47,10.61,3.06,2.47,5.98,5.14,9.17,7.42,3.41,2.44,6.52,1.95,9.48-1.14,1.97-2.05,2.01-3.58-.53-5.71-4.49-3.75-8.44-8.14-12.62-12.27Zm47.1,120.91c1.56-3.68,3.66-6.54,3.78-9.48.12-2.96-1.71-6-3-10,.97,1.41,1.35,1.97,2.2,3.22.1-1.54.14-2.24.18-2.89,1.42-.09,2.69-.18,3.96-.26,0-.16,0-.33,0-.49-1.68-.2-3.36-.4-4.44-.53.76-5.56,6.41-7.54,9.37-12.61-1.27.21-2.55.43-3.4.57-.21-1.64-.24-3.35-.66-4.95-.78-2.93-1.85-5.78-2.69-8.7-.44-1.52-.14-3.54-1.05-4.58-1.8-2.07-4.21-3.61-6.57-5.54-3.58,8.81-7.2,17.21-10.41,25.75-2,5.31-2.12,10.6,2.86,14.8.18-1.04.35-2.01.52-2.98.83,7.32,5.2,12.54,9.35,18.65Zm33.52-143.86c2.73,1.56,5.12,2.13,8.04.48,1.67-.94,4.14-1.17,6.08-.81,6.49,1.21,15.94,9.62,16.98,15.76.78,4.66,2.74,7.25,7.58,7.43.93.04,1.84.6,2.77.89,6.76,2.14,15.9,2.76,20.04,1.36-7.42-8.21-15.88-15.02-26.02-19.6-7.44-3.36-15.02-6.47-22.27-10.21-5.23-2.7-8.66-2.96-13.19,4.7Zm-28.51,91.35c.67-1.46,1.17-2.1,1.25-2.8.72-5.68,3.87-9.77,8.36-13.03,1.09-.79,2.16-1.6,3.18-2.48,1.75-1.51,2.17-2.86.08-4.72-3.47-3.1-6.57-6.62-10.02-9.75-.6-.54-2.51-.48-3.23.07-4.33,3.32-8.52,6.82-12.69,10.34-4.68,3.95-5.05,4.12-.6,8.77,4.31,4.5,8.83,8.8,13.66,13.58Zm-2-209.5c4.1-3.16,7.87-6.06,11.64-8.97.17.24.35.48.52.72-2.13,1.92-4.25,3.85-5.8,5.25,3.73,1.72,8.14,2.8,11.18,5.44,2.88,2.51,5.08,2.53,8.03,1.23.7-.31,1.41-.58,1.51-.61-2.13-5.88-4.18-11.54-6.23-17.2-.25.06-.51.12-.76.18l-1.94,7.53c-.41.07-.83.14-1.24.21-2.8-9.82-8.55-16.75-18.44-19.98.5,8.59.99,16.9,1.54,26.2Zm126.52,31.61c.33.18.66.37,1,.55,4.13-3.41,8.47-6.6,12.3-10.32,2.05-1.99,3.63-4.58,2.88-8.08-.59-2.72-.44-5.64,1.94-7.93,1.35-1.31,2.35-2.99,3.82-4.92-2.51,0-4.58,0-6.66,0-5.9,0-13.54,6.6-14.13,12.58-.59,6.02-.77,12.08-1.13,18.12Zm-44.66,212.65c.17.3.34.6.51.91,2.15-1.22,5.18-1.96,6.22-3.8,1.04-1.84.98-5.37-.16-7.18-3.66-5.79-10.41-6.1-15.18-3.38-1.15.65-2.5,2.39-2.41,3.53.53,6.97,3.99,9.92,11.02,9.92Zm-21.04-10.03c.02.49.03.98.05,1.47,4.32,2.83,6.77,6.92,8.42,11.65.31.89,1.57,1.99,2.46,2.06,5.42.43,10.88.46,16.3.88,4.45.34,5.26-3.56,7.16-5.98,1.27-1.63-1.21-7.56-3.13-8.83-1.72,9.5-2.6,11.02-7.75,10.93-3.48-.06-7.28-.35-10.35-1.79-4.5-2.1-4.89-7.19-6-12.06-2.55.6-4.86,1.13-7.16,1.67Zm-42.24-2.12c-.24.3-.49.6-.73.89,5.97,2.2,3.44,10.52,9.89,12.45.36-.66.72-1.17.94-1.73,1.5-3.87,2.74-4.28,6.16-2.05.58.38,1.28.71,1.94.76,1.52.11,3.06.04,5.26.04-.71-2.81-1.55-6.12-2.34-9.26-3.87-.17-7.33-.31-10.79-.49-3.44-.18-6.88-.4-10.32-.61Zm-95.62-170.06c6.64,8.11,17.07,13.68,23.67,12.29-4.43-4.94-8.45-9.82-12.91-14.28-4.06-4.06-7.6-3.26-10.77,1.99Zm14.67,80.59c.48.19.96.38,1.44.57,3.9-12,9.41-23.08,18.22-32.34-7.39-3.78-10.58-2.28-12.44,5.21-.23.94-.61,1.85-.86,2.79-2.13,7.92-4.24,15.85-6.36,23.78Zm48.41-22.72c1.35.28,2.51.56,3.68.76,5.06.86,5.72,2.21,4.54,7.08-1.32,5.45-2.14,11.02-3.25,16.97,2.33-.52,4.37-.98,6.41-1.41,2.42-.51,3.37-1.65,3.01-4.4-.41-3.17.06-6.45.03-9.68,0-1.03-.07-2.35-.68-3.04-2.3-2.6-4.8-5.05-7.3-7.47-2.37-2.29-4.52-2.2-6.45,1.19Zm141.29,115.54h-21.75q5.14,9.54,8.56,10.57c2.44-3.75,2.65-3.82,6.78-2.53.6.19,1.35.22,1.95.05,4.88-1.43,5.07-1.79,4.46-8.09ZM85.56,122.38c9.62-7.9,18.74-25.02,16.61-31.16-9.75,7.97-12.05,19.7-16.61,31.16Zm-3.37,32.09c-4.03-8.51.63-13.45,6.81-17.82-7.2-1.26-13.13,1.39-20.14,5.11,4.83,4.61,9.08,8.66,13.32,12.71Zm104.69,133.92c-6.27,1.92-12.98,3-18.7,5.98-7.25,3.78-10.65,11.36-12.92,18.87-.94,3.1.61,6.84,3.05,9.03-.14-3.61-1.09-7.51-.29-11.01,2.4-10.55,14.37-17.44,22.99-18.23,2.91-.27,4.88-1.03,5.87-4.64Zm-25.33-79.39c1.27,1.2,3.2,2.27,3.92,3.88,1.35,3.03,3.35,3.39,6.58,2.51-.36-5.66-.73-11.4-1.13-17.59-3.34,3.99-6.31,7.55-9.37,11.2Zm90.27,147.6c2.39-6.62,1.46-9.41-4.23-12.36q-5.74,6.63-4.81,12.36h9.05Zm-118.26-102.82v-9.21c.32-.04.63-.08.95-.12.57,1.98,1.15,3.95,1.75,6.02.62-2.3,1.18-4.39,1.75-6.53-.79-.42-1.71-.91-3.37-1.78,5.69-.94,6.65-4.45,6.47-9.23-2.4,1.61-4.73,2.76-6.49,4.48-1.59,1.56-2.38,3.92-3.86,5.62-2.96,3.39-1.36,9.35,2.8,10.75Zm56.79,32.55c-2.83-.45-3.23-5.16-7.24-3.53-8.57,3.47-16.77,7.55-23.21,14.38-1.43,1.52-2.19,3.66-3.26,5.52.32.3.65.6.97.9,6.68-13.96,19.8-15.12,32.74-17.28Zm-21.85,70.39c3.74-7.56,4.79-15,1.79-22.52-.76.68-1.47,1.78-2.41,2.06-2.58.77-2.43,2.22-1.98,4.43,1.05,5.18,1.73,10.44,2.61,16.03Zm-63.53-240.25c-.45-.43-.9-.86-1.35-1.29-4.18,5.12-9.36,8.74-15.79,9.91-3.83.7-3.77,4.67-6.54,6.06,3.68-1.1,7.11-2.43,10.59-3.65,1.45-.51,3.43-.33,4.38-1.26,3.1-3.06,5.84-6.48,8.71-9.77Zm59.69,98.95c-1.94-2.45-5.27-4.84-5.05-6.84.3-2.71,3.32-5.11,5.2-7.68-1.1-2.31-2.27-4.77-3.4-7.16-1.98,7.01-3.92,13.85-5.95,21.04,3.57.25,6.08.42,9.2.64Zm36.48,125.03c0,2.18-.15,4.41.04,6.61.22,2.5,1.81,4.2,4.28,4.13,1.3-.04,3.26-1.04,3.72-2.12,1.32-3.1-4.25-9.07-8.04-8.62Zm-64.03,66.55c1.59,3.12,3.33,5.72,4.31,8.59,2.5,7.32.45,12.38-5.53,14.22.17.81.3,1.64.53,2.45.22.75.54,1.48.82,2.23,3.51-1.57,6.12-5.59,6.24-9.28.38-12.34-.54-15.08-6.37-18.21Zm-21.03-281.14c-3,2.1-5.74,4.01-8.49,5.93,4.96,6.13,3.71,5.98,11.14.24-.88-2.04-1.75-4.08-2.65-6.17Zm-53.1,17.99c-.24.46-.48.92-.72,1.38,3.9,5.12,8.65,8.61,15.98,7.23-5.09-2.87-10.18-5.74-15.27-8.61Zm21.77-10.02c7.75.57,14.31,1.06,20.79,1.54-3.18-4.63-4.32-5.08-9.11-2.68-2.43,1.22-4.12.88-5.24-1.59-1.99.84-3.73,1.58-6.43,2.73Zm-27.88,15.6c1.28,4.62,7.01,9.42,12.44,9.28-4.15-3.09-8.29-6.19-12.44-9.28Zm113.9,44.5c-1.35-1.32-2.49-2.43-3.62-3.53-1.25,1.05-2.35,1.98-3.52,2.96.98,1.82,1.93,3.58,3.13,5.81,1.53-2.01,2.7-3.53,4-5.24Zm-11.22-86.76c-.3.14-.6.29-.9.43v10.36c1.41-1.29,2.64-1.89,2.69-2.56.21-2.92.48-5.99-1.79-8.23Zm-15.85-15.78c-.4-.09-.8-.18-1.2-.26-.95,3.73-1.9,7.46-2.92,11.5,7.11-2.28,2.34-7.73,4.12-11.24Zm32.23,70.24q5.01.15,7.07-9.72c-2.53,3.48-4.78,6.57-7.07,9.72Zm-50.07-52.3c5.68-1.42,6.3-2.54,5.05-9.04-1.78,3.19-3.3,5.91-5.05,9.04Z"/>
  <path d="m118.43,165.19c-1.01-1.21-2.02-2.43-3.03-3.64l.22-1.08c5.83.39,11.66.78,18.04,1.21-4.46,6.66-6.61,7.25-12.65,4.32-.85-.41-1.8-.63-2.7-.93,0,0,.13.12.13.12Z"/>
  <path d="m136.24,171.69c-3.43.97-6.51,1.84-9.58,2.71,3.13-3.9,4.36-4.27,9.58-2.71Z"/>
</svg>